<?xml version="1.0" encoding="UTF-8"?>
<svg version="1.1" xmlns="http://www.w3.org/2000/svg" width="1024" height="1024">
<path d="M0 0 C337.92 0 675.84 0 1024 0 C1024 337.92 1024 675.84 1024 1024 C686.08 1024 348.16 1024 0 1024 C0 686.08 0 348.16 0 0 Z " fill="#FDFEFE" transform="translate(0,0)"/>
<path d="M0 0 C1.18191925 -0.00261841 2.3638385 -0.00523682 3.58157349 -0.00793457 C26.12739774 -0.01329137 47.88748557 1.06486088 69.4375 8.3125 C70.95538782 8.75118282 72.47365965 9.18853782 73.9921875 9.625 C80.27006407 11.50181255 86.34334426 13.85094128 92.4375 16.25 C94.25399048 16.96373779 94.25399048 16.96373779 96.10717773 17.69189453 C106.80476474 21.9354963 117.25259913 26.67472394 127.66015625 31.5859375 C128.63049805 32.03936523 129.60083984 32.49279297 130.60058594 32.95996094 C132.45263501 33.84295163 134.29046638 34.75659101 136.11035156 35.70410156 C143.62086822 39.47452987 150.7550889 40.47739368 159.0625 41.3125 C161.80889876 41.62094807 164.55304354 41.94689937 167.296875 42.27734375 C167.98131683 42.35895248 168.66575867 42.44056122 169.37094116 42.52464294 C176.07585389 43.34682718 182.69165435 44.53656224 189.3125 45.875 C190.30846191 46.07287109 191.30442383 46.27074219 192.33056641 46.47460938 C198.20157671 47.69408915 203.79264476 49.30152032 209.4375 51.3125 C210.87596319 51.80177871 212.31476397 52.29006611 213.75390625 52.77734375 C215.16954976 53.26742419 216.58491572 53.75830712 218 54.25 C219.05477539 54.60868164 219.05477539 54.60868164 220.13085938 54.97460938 C225.11770253 56.7133523 229.76895499 58.8491433 234.4375 61.3125 C235.38085205 61.80544556 235.38085205 61.80544556 236.34326172 62.30834961 C241.95740448 65.28750199 248.1528301 69.13623927 250.4375 75.3125 C250.703125 78.30078125 250.703125 78.30078125 250.6875 81.625 C250.69265625 82.71425781 250.6978125 83.80351562 250.703125 84.92578125 C250.40886494 88.67759698 249.57930038 91.73757739 248.4375 95.3125 C233.37328728 95.69986547 218.44678368 94.51031188 203.4375 93.3125 C203.25864258 92.437146 203.07978516 91.56179199 202.89550781 90.65991211 C202.64639648 89.50241455 202.39728516 88.34491699 202.140625 87.15234375 C201.89989258 86.00886475 201.65916016 84.86538574 201.41113281 83.68725586 C198.78463747 74.58343312 191.93948524 67.40839319 183.8203125 62.83984375 C174.77607346 58.53363444 165.31719831 57.63452976 155.625 60.4375 C145.99687137 64.28517222 138.93325436 70.41608056 134.6875 79.9375 C133.53692188 83.04406093 132.47703058 86.16747953 131.4375 89.3125 C129.86756538 89.32463028 129.86756538 89.32463028 128.26591492 89.33700562 C38.17516273 89.61344839 38.17516273 89.61344839 -51.74346924 94.54141235 C-52.45847595 94.6025119 -53.17348267 94.66361145 -53.91015625 94.7265625 C-54.59148621 94.78484222 -55.27281616 94.84312195 -55.97479248 94.90316772 C-61.19128263 95.32913108 -66.33207554 95.42654295 -71.5625 95.3125 C-71.70945312 94.49007812 -71.85640625 93.66765625 -72.0078125 92.8203125 C-74.50769886 80.37834935 -79.24327356 71.8857628 -89.5625 64.3125 C-98.08342397 59.04418679 -106.66705899 58.53012103 -116.5625 59.3125 C-119.91520091 60.1830084 -122.62770984 61.49031888 -125.5625 63.3125 C-126.25988281 63.73660156 -126.95726562 64.16070312 -127.67578125 64.59765625 C-134.42431106 69.1602216 -139.40358109 76.00809983 -142.10546875 83.71875 C-143.23682305 90.13942738 -142.76166631 96.82115352 -142.5625 103.3125 C-156.16217477 102.44902859 -178.30416968 99.62994471 -188.25 89.0625 C-192.62347669 82.79890878 -194.94864903 76.02912149 -195.19140625 68.41796875 C-194.5625 66.3125 -194.5625 66.3125 -192.046875 64.2265625 C-188.34720066 59.88700738 -189.0096566 56.00571273 -189.25 50.5 C-189.27255859 49.52095703 -189.29511719 48.54191406 -189.31835938 47.53320312 C-189.37710273 45.12472545 -189.45917871 42.71940922 -189.5625 40.3125 C-190.6246875 39.96058594 -191.686875 39.60867188 -192.78125 39.24609375 C-208.43898526 33.85172277 -208.43898526 33.85172277 -213.5625 27.3125 C-213.5625 26.6525 -213.5625 25.9925 -213.5625 25.3125 C-212.54671875 25.44527344 -211.5309375 25.57804687 -210.484375 25.71484375 C-188.08051722 28.60972425 -167.67256901 29.54465373 -145.5625 24.3125 C-144.095481 23.98375714 -142.62804522 23.6568675 -141.16015625 23.33203125 C-134.08483662 21.74293073 -127.09778786 19.92602708 -120.125 17.9375 C-96.65030164 11.27516689 -72.46301359 6.06299 -48.3125 2.5625 C-47.51610107 2.44688721 -46.71970215 2.33127441 -45.89916992 2.2121582 C-30.63340902 0.12549426 -15.38357253 0.03248147 0 0 Z " fill="#2B8FBF" transform="translate(463.5625,397.6875)"/>
<path d="M0 0 C-0.66 0.99 -1.32 1.98 -2 3 C-1.1440625 3.11214844 -0.288125 3.22429687 0.59375 3.33984375 C4.17091224 4.03312405 7.13401471 5.1713777 10.5 6.5625 C52.15923906 22.89955564 99.34278443 28.61280294 143.49108887 34.03555298 C148.11064273 34.61043588 152.71809622 35.24329968 157.32397461 35.91943359 C175.35617789 38.54671325 193.37647373 40.37337584 211.53344727 41.86523438 C215.44127524 42.18640038 219.34775919 42.52161405 223.25410271 42.86029816 C246.09065609 44.86095165 246.09065609 44.86095165 269 45 C269.33 44.34 269.66 43.68 270 43 C269.39655716 46.31893565 268.24962511 48.21749769 266.125 50.8125 C261.99615862 56.13653231 260.10827932 61.62156173 258 68 C256.43006538 68.01213028 256.43006538 68.01213028 254.82841492 68.02450562 C164.73766273 68.30094839 164.73766273 68.30094839 74.81903076 73.22891235 C74.10402405 73.2900119 73.38901733 73.35111145 72.65234375 73.4140625 C71.97101379 73.47234222 71.28968384 73.53062195 70.58770752 73.59066772 C65.37121737 74.01663108 60.23042446 74.11404295 55 74 C54.85304688 73.17757812 54.70609375 72.35515625 54.5546875 71.5078125 C52.05480114 59.06584935 47.31922644 50.5732628 37 43 C28.47907603 37.73168679 19.89544101 37.21762103 10 38 C6.64729909 38.8705084 3.93479016 40.17781888 1 42 C0.30261719 42.42410156 -0.39476562 42.84820312 -1.11328125 43.28515625 C-7.86181106 47.8477216 -12.84108109 54.69559983 -15.54296875 62.40625 C-16.67432305 68.82692738 -16.19916631 75.50865352 -16 82 C-29.59967477 81.13652859 -51.74166968 78.31744471 -61.6875 67.75 C-66.06097669 61.48640878 -68.38614903 54.71662149 -68.62890625 47.10546875 C-68 45 -68 45 -65.484375 42.9140625 C-61.78470066 38.57450738 -62.4471566 34.69321273 -62.6875 29.1875 C-62.71005859 28.20845703 -62.73261719 27.22941406 -62.75585938 26.22070312 C-62.81460273 23.81222545 -62.89667871 21.40690922 -63 19 C-64.0621875 18.64808594 -65.124375 18.29617188 -66.21875 17.93359375 C-81.87648526 12.53922277 -81.87648526 12.53922277 -87 6 C-87 5.34 -87 4.68 -87 4 C-85.98421875 4.13277344 -84.9684375 4.26554687 -83.921875 4.40234375 C-61.55550613 7.29238018 -41.06888296 8.31050459 -19 3 C-17.76467529 2.70391846 -17.76467529 2.70391846 -16.50439453 2.40185547 C-15.6895459 2.2060791 -14.87469727 2.01030273 -14.03515625 1.80859375 C-13.24971436 1.62071289 -12.46427246 1.43283203 -11.6550293 1.23925781 C-10.16850863 0.87952586 -8.68412633 0.51080279 -7.20239258 0.13183594 C-2.21584646 -1.10792323 -2.21584646 -1.10792323 0 0 Z " fill="#255899" transform="translate(337,419)"/>
<path d="M0 0 C6.24326083 1.32921037 12.40478734 2.70765573 18.4375 4.8125 C25.16975266 7.14946354 32.02676767 8.96774454 38.90795898 10.8059082 C44.19116532 12.21984399 49.44100024 13.70830462 54.67431641 15.29711914 C57.98135763 16.29659129 61.30192022 17.24270281 64.625 18.1875 C65.83414062 18.53167969 67.04328125 18.87585938 68.2890625 19.23046875 C69.18367188 19.48441406 70.07828125 19.73835938 71 20 C71 20.66 71 21.32 71 22 C70.11965088 22.21615967 69.23930176 22.43231934 68.33227539 22.6550293 C49.04147847 27.29352143 49.04147847 27.29352143 29.9375 32.625 C23.32955816 34.63670572 16.68399974 36.44476689 10 38.1875 C9.04343506 38.43773926 8.08687012 38.68797852 7.10131836 38.94580078 C1.4232973 40.41613137 -4.26710661 41.76061424 -10 43 C-6.24897071 39.19288055 -2.38043199 35.54467023 1.5625 31.9375 C2.68955094 30.90576536 3.81587013 29.87323072 4.94140625 28.83984375 C5.43326416 28.38988037 5.92512207 27.93991699 6.43188477 27.47631836 C8.32871109 25.69053153 10.16490986 23.84896044 12 22 C-20.69656041 22.45682114 -53.34982633 23.1471309 -86 25 C-87.3176535 25.0747757 -87.3176535 25.0747757 -88.66192627 25.15106201 C-113.13944817 26.55670854 -137.5713338 28.48276687 -162 30.5625 C-163.25596985 30.66841461 -164.5119397 30.77432922 -165.80596924 30.88345337 C-169.41278426 31.18922962 -173.01895983 31.50163671 -176.625 31.81640625 C-178.21300919 31.95070038 -178.21300919 31.95070038 -179.83309937 32.08770752 C-186.28524496 32.66123441 -192.65162371 33.50266713 -199.04504395 34.54498291 C-202.83754508 35.12896886 -206.6362973 35.51157039 -210.45410156 35.88598633 C-262.40589389 41.02869742 -321.23337281 48.25273958 -369.50390625 69.21484375 C-372.27576258 70.08674222 -373.388102 70.24821231 -376 69 C-381.22180274 63.17856441 -384 56.80397941 -384 49 C-376.15393554 46.10934467 -368.20439441 44.52805207 -360 43 C-358.60417483 42.73573797 -357.20842324 42.47108708 -355.81274414 42.20605469 C-351.8769059 41.4611403 -347.93883116 40.7289241 -344 40 C-343.05237793 39.82404297 -342.10475586 39.64808594 -341.12841797 39.46679688 C-327.10937247 36.8796992 -313.00032342 34.97194926 -298.875 33.0625 C-297.74191406 32.90587891 -296.60882813 32.74925781 -295.44140625 32.58789062 C-272.85396974 29.54307507 -250.13726793 27.44124784 -227.4375 25.4375 C-226.21619385 25.32950073 -224.9948877 25.22150146 -223.73657227 25.11022949 C-201.59633865 23.17035748 -179.47928237 21.83490109 -157.2689209 21.07818604 C-155.12216038 21.00420959 -152.97562636 20.92571113 -150.82910156 20.84521484 C-141.22092552 20.48975275 -131.6120084 20.22154126 -122 20 C-121.1558252 19.9804425 -120.31165039 19.96088501 -119.44189453 19.94073486 C-74.96767178 18.92286745 -30.4823685 18.49721461 14 18 C13.24074219 17.11957031 12.48148438 16.23914063 11.69921875 15.33203125 C10.69512011 14.15901882 9.69122458 12.98583252 8.6875 11.8125 C7.93823242 10.9452832 7.93823242 10.9452832 7.17382812 10.06054688 C4.43774803 6.85335365 2.04686164 3.70950011 0 0 Z " fill="#309DC8" transform="translate(721,478)"/>
<path d="M0 0 C1.05912598 0.52432617 2.11825195 1.04865234 3.20947266 1.58886719 C4.18577637 2.08290039 5.16208008 2.57693359 6.16796875 3.0859375 C7.04090576 3.52728027 7.91384277 3.96862305 8.81323242 4.42333984 C10.8125 5.625 10.8125 5.625 11.8125 7.625 C-24.37235136 8.08408369 -60.42396541 7.82884476 -96.5625 5.8125 C-98.0930767 5.72876552 -99.62365529 5.6450655 -101.15423584 5.56140137 C-116.8260988 4.69557993 -132.46551777 3.60483051 -148.08984375 2.1015625 C-149.33305389 1.98221848 -150.57626404 1.86287445 -151.85714722 1.73991394 C-170.00331089 -0.07950279 -188.03218076 -2.97376148 -205.1875 -9.375 C-205.5175 -10.035 -205.8475 -10.695 -206.1875 -11.375 C-182.53878419 -18.30027826 -159.70647278 -22.89589551 -135.1875 -25.375 C-133.92534668 -25.51965698 -133.92534668 -25.51965698 -132.63769531 -25.66723633 C-85.57355866 -30.69037548 -42.17135958 -20.88308272 0 0 Z " fill="#FAFCFC" transform="translate(576.1875,434.375)"/>
<path d="M0 0 C5.28612324 0.56618829 10.16147805 1.45758586 15.2890625 2.92578125 C15.95481293 3.11464401 16.62056335 3.30350677 17.30648804 3.49809265 C19.41427012 4.09740933 21.51963241 4.70476252 23.625 5.3125 C25.0115651 5.70822107 26.39828308 6.10340684 27.78515625 6.49804688 C29.16146021 6.89061843 30.5377623 7.28319652 31.9140625 7.67578125 C32.92741669 7.96402267 32.92741669 7.96402267 33.96124268 8.25808716 C37.30730773 9.21368217 40.64323888 10.19203699 43.96777344 11.22021484 C45.20301758 11.59484863 46.43826172 11.96948242 47.7109375 12.35546875 C49.3513501 12.86630005 49.3513501 12.86630005 51.02490234 13.38745117 C55.5507594 14.31928896 58.18846186 13.38280101 62.3125 11.4375 C70.31060319 8.35077957 81.93096112 8.68726314 89.84375 11.8828125 C96.10056234 15.12456672 102.29502069 18.67622522 107 24 C107.75 26.75 107.75 26.75 108 29 C107.236875 28.195625 106.47375 27.39125 105.6875 26.5625 C102.80357378 23.81270989 101.24965448 23.17852207 97.375 22.625 C94.6064049 22.1122972 92.57529555 21.45708727 90 20.4375 C82.4553824 17.86315413 73.55875695 17.55118008 66.125 20.625 C64.72453856 21.37070025 63.3479347 22.16308116 62 23 C61.30261719 23.42410156 60.60523438 23.84820312 59.88671875 24.28515625 C53.13818894 28.8477216 48.15891891 35.69559983 45.45703125 43.40625 C44.32567695 49.82692738 44.80083369 56.50865352 45 63 C31.40032523 62.13652859 9.25833032 59.31744471 -0.6875 48.75 C-5.06097669 42.48640878 -7.38614903 35.71662149 -7.62890625 28.10546875 C-7 26 -7 26 -4.546875 23.9140625 C-0.83400151 19.66589743 -0.99313204 15.67046513 -0.6875 10.1875 C-0.61466797 9.20845703 -0.54183594 8.22941406 -0.46679688 7.22070312 C-0.29073045 4.81446202 -0.13585437 2.4087902 0 0 Z " fill="#2C237D" transform="translate(276,438)"/>
<path d="M0 0 C5.13575274 0.00759447 10.27142884 0.004772 15.40717888 -0.00360441 C78.49846847 -0.10414725 78.49846847 -0.10414725 107.06977654 2.25713778 C107.06977654 2.58713778 107.06977654 2.91713778 107.06977654 3.25713778 C106.18141106 3.26744524 105.29304558 3.2777527 104.37775993 3.28837252 C54.50149959 3.81201054 54.50149959 3.81201054 4.63227654 4.75713778 C3.44940056 4.78395128 3.44940056 4.78395128 2.2426281 4.81130648 C0.08198794 4.86132023 -2.0783962 4.91724127 -4.23881721 4.97588778 C-5.38149055 5.00618074 -6.52416389 5.03647371 -7.7014637 5.06768465 C-10.98357002 5.21517789 -10.98357002 5.21517789 -14.42241096 5.75713778 C-17.89275321 6.2517968 -21.24412031 6.44532414 -24.74662971 6.53838778 C-26.63478401 6.59446199 -26.63478401 6.59446199 -28.56108284 6.65166903 C-31.18608003 6.72208624 -33.81108005 6.79239843 -36.43608284 6.86260653 C-37.69356331 6.89998934 -38.95104378 6.93737215 -40.24662971 6.97588778 C-41.385597 7.00618074 -42.52456429 7.03647371 -43.69804573 7.06768465 C-46.88895103 7.19614462 -46.88895103 7.19614462 -49.83915901 7.74786043 C-53.57843335 8.36393549 -57.29127508 8.53768841 -61.07084846 8.68682528 C-62.69692339 8.75846234 -64.32298065 8.83050124 -65.94902229 8.90288973 C-66.80057899 8.9398395 -67.6521357 8.97678926 -68.52949715 9.01485872 C-113.11369325 10.98744724 -157.62362961 15.85021128 -201.69291878 22.86162996 C-204.1909249 23.25883942 -206.68944109 23.65271308 -209.18803596 24.04620028 C-217.45473092 25.35259534 -225.70591152 26.70279642 -233.93022346 28.25713778 C-235.03172737 28.46145418 -236.13323128 28.66577059 -237.26811409 28.8762784 C-254.15866561 32.02229095 -270.89531959 35.48204615 -287.559618 39.68804598 C-290.00609639 40.27535197 -292.46029297 40.7790247 -294.93022346 41.25713778 C-293.64565281 37.40342581 -291.98335865 36.48834171 -288.74272346 34.06963778 C-287.32926643 32.99649324 -287.32926643 32.99649324 -285.88725471 31.90166903 C-284.5762343 31.00831883 -283.25566324 30.12895111 -281.93022346 29.25713778 C-280.97502815 28.61131746 -280.01983284 27.96549715 -279.03569221 27.30010653 C-269.43027812 21.26050741 -260.43691389 19.24885461 -249.30522346 17.63213778 C-247.50586604 17.35099784 -245.70679908 17.06799344 -243.90800667 16.78326082 C-239.1968982 16.04722536 -234.4808351 15.35108911 -229.7617054 14.66857576 C-226.98678735 14.26535698 -224.21350073 13.85236803 -221.44047737 13.43633699 C-200.80514629 10.35291004 -180.14784217 7.826674 -159.36772346 5.94463778 C-158.47072731 5.86323549 -157.57373116 5.78183321 -156.6495533 5.69796419 C-146.5575407 4.79479159 -136.4720266 4.05238972 -126.34829903 3.61448336 C-125.62260216 3.58139574 -124.89690529 3.54830812 -124.14921761 3.51421785 C-123.52519554 3.48830065 -122.90117348 3.46238344 -122.25824165 3.43568087 C-120.25401329 3.28197024 -118.25719359 3.03663117 -116.26431465 2.77396822 C-111.63876096 2.18248461 -107.02252923 1.93553357 -102.36577034 1.73077059 C-101.43030876 1.68837503 -100.49484718 1.64597948 -99.53103828 1.60229921 C-96.40392404 1.46494121 -93.27657551 1.33601475 -90.14897346 1.21026278 C-89.04845146 1.16589334 -87.94792946 1.12152391 -86.8140583 1.07580996 C-57.88128144 -0.05441785 -28.94924613 -0.04782764 0 0 Z " fill="#323887" transform="translate(552.9302234649658,491.74286222457886)"/>
<path d="M0 0 C2.88437779 1.29299694 4.87219421 2.65941363 7 5 C7.33 4.01 7.66 3.02 8 2 C9.2595752 2.29205322 10.51915039 2.58410645 11.81689453 2.88500977 C17.15818234 4.07037856 22.52909739 4.97163935 27.9296875 5.83984375 C29.47440231 6.09127892 29.47440231 6.09127892 31.05032349 6.34779358 C34.32482579 6.88013101 37.59990391 7.40882942 40.875 7.9375 C43.03389144 8.28818205 45.19274593 8.63909172 47.3515625 8.99023438 C51.6010993 9.68089926 55.85138481 10.36666898 60.10229492 11.04882812 C63.64897865 11.61825617 67.19349384 12.1976935 70.7355957 12.79492188 C84.90120782 15.15496721 99.15837723 16.74898804 113.42163086 18.39263916 C118.13359731 18.93576791 122.84521436 19.48182446 127.55641174 20.03158569 C130.05019646 20.32248186 132.54427684 20.61085728 135.03868103 20.89639282 C136.71807518 21.09197281 136.71807518 21.09197281 138.43139648 21.29150391 C139.41333481 21.40458893 140.39527313 21.51767395 141.40696716 21.63418579 C143.67123798 21.95361963 145.78677016 22.44517853 148 23 C151.25890302 23.22052727 154.5118027 23.39240777 157.77539062 23.51757812 C159.52196538 23.60859923 161.26290594 23.79674533 163 24 C163.33 24.66 163.66 25.32 164 26 C160.66583006 27.11138998 158.03681884 27.19120784 154.52270508 27.28125 C153.86831451 27.29929687 153.21392395 27.31734375 152.53970337 27.3359375 C150.36640235 27.39486199 148.19299281 27.44736032 146.01953125 27.5 C144.4894645 27.54056484 142.95940986 27.58158847 141.42936707 27.62304688 C137.37968294 27.73178023 133.32988388 27.83533575 129.2800293 27.9375 C87.16553126 28.96625183 87.16553126 28.96625183 45.125 31.5625 C24.82205736 33.20832374 24.82205736 33.20832374 16 33 C15.85304688 32.17757812 15.70609375 31.35515625 15.5546875 30.5078125 C12.99066712 17.74665362 8.16237372 10.08473287 -2 2 C-1.34 1.34 -0.68 0.68 0 0 Z " fill="#23478D" transform="translate(376,460)"/>
<path d="M0 0 C4.49625 -0.061875 8.9925 -0.12375 13.625 -0.1875 C15.03217285 -0.21481201 16.4393457 -0.24212402 17.88916016 -0.27026367 C19.01112793 -0.27775635 20.1330957 -0.28524902 21.2890625 -0.29296875 C23.00150146 -0.31653442 23.00150146 -0.31653442 24.74853516 -0.34057617 C28.47046733 0.04927932 30.82583569 1.04171076 34 3 C36.96098774 7.44148161 36.65429499 11.78846436 36 17 C34 20.1875 34 20.1875 32 22 C32.969375 22.78375 33.93875 23.5675 34.9375 24.375 C36.83962346 25.91288705 37.89629957 26.79259913 39 29 C39.38893819 33.66725826 39.45147837 36.07967871 37.375 40.3125 C33.97491846 44.15996069 30.7877386 45.81788408 25.65673828 46.34057617 C24.47321777 46.32486572 23.28969727 46.30915527 22.0703125 46.29296875 C20.32645264 46.28172974 20.32645264 46.28172974 18.54736328 46.27026367 C17.0879834 46.24295166 15.62860352 46.21563965 14.125 46.1875 C9.46375 46.125625 4.8025 46.06375 0 46 C0 30.82 0 15.64 0 0 Z " fill="#28367B" transform="translate(426,572)"/>
<path d="M0 0 C3.3 0 6.6 0 10 0 C10.33 5.61 10.66 11.22 11 17 C13.31 15.68 15.62 14.36 18 13 C22.59045605 12.42076264 26.14585767 13.44836642 30 15.9375 C33.40103333 19.44481562 33.11851347 21.74190176 33.09765625 26.5390625 C33.09443359 27.84101562 33.09121094 29.14296875 33.08789062 30.484375 C33.07953466 31.86458399 33.07106971 33.24479232 33.0625 34.625 C33.05748501 36.01301926 33.0529221 37.40104022 33.04882812 38.7890625 C33.03700976 42.19275132 33.02053434 45.59635439 33 49 C30.03 49 27.06 49 24 49 C23.98541748 48.31897217 23.97083496 47.63794434 23.95581055 46.9362793 C23.88137304 43.85277785 23.78469917 40.77036433 23.6875 37.6875 C23.66494141 36.61564453 23.64238281 35.54378906 23.61914062 34.43945312 C23.5659668 32.89741211 23.5659668 32.89741211 23.51171875 31.32421875 C23.48553467 30.37635498 23.45935059 29.42849121 23.43237305 28.4519043 C22.93009949 25.60360768 22.32817535 24.67445969 20 23 C15.92779085 22.47806647 15.92779085 22.47806647 12.34448242 24.17700195 C10.50221494 26.67495207 10.56991195 28.45732816 10.48828125 31.54296875 C10.45283203 32.61611328 10.41738281 33.68925781 10.38085938 34.79492188 C10.34702148 36.47424805 10.34702148 36.47424805 10.3125 38.1875 C10.27833984 39.31865234 10.24417969 40.44980469 10.20898438 41.61523438 C10.12643686 44.4100574 10.05730818 47.20456398 10 50 C6.7 50 3.4 50 0 50 C0 33.5 0 17 0 0 Z " fill="#283778" transform="translate(754,569)"/>
<path d="M0 0 C3.3 0 6.6 0 10 0 C10.33 5.94 10.66 11.88 11 18 C12.65 16.68 14.3 15.36 16 14 C21.04823034 13.01356419 25.5794423 13.18825274 30.0625 15.75 C33.64665947 19.9122497 34.24712603 22.80464088 34.1953125 28.296875 C34.18886719 29.50214844 34.18242188 30.70742188 34.17578125 31.94921875 C34.15902344 33.20347656 34.14226563 34.45773437 34.125 35.75 C34.11597656 37.01972656 34.10695313 38.28945313 34.09765625 39.59765625 C34.07409005 42.73196093 34.04118832 45.86588541 34 49 C31.03 49 28.06 49 25 49 C24.98598145 47.97845825 24.98598145 47.97845825 24.97167969 46.9362793 C24.91801869 43.85261353 24.83436449 40.77047206 24.75 37.6875 C24.73582031 36.61564453 24.72164062 35.54378906 24.70703125 34.43945312 C24.67480469 33.41142578 24.64257812 32.38339844 24.609375 31.32421875 C24.58842773 30.37635498 24.56748047 29.42849121 24.54589844 28.4519043 C24.20581824 25.8725275 24.20581824 25.8725275 22.15332031 24.19458008 C19.21372117 22.56380246 17.30703696 22.50746258 14 23 C11.14039096 25.94710927 10.60573813 28.16260821 10.48828125 32.203125 C10.45283203 33.1828125 10.41738281 34.1625 10.38085938 35.171875 C10.34702148 36.69554687 10.34702148 36.69554687 10.3125 38.25 C10.27833984 39.28125 10.24417969 40.3125 10.20898438 41.375 C10.12662785 43.91628699 10.06163407 46.45812601 10 49 C6.7 49 3.4 49 0 49 C0 32.83 0 16.66 0 0 Z " fill="#333F81" transform="translate(615,569)"/>
<path d="M0 0 C5.09493299 2.78779353 7.72225731 5.63201462 10.3125 10.8125 C10.3125 13.7825 10.3125 16.7525 10.3125 19.8125 C2.0625 19.8125 -6.1875 19.8125 -14.6875 19.8125 C-13.14707252 24.61554035 -13.14707252 24.61554035 -10.6875 26.8125 C-5.12301761 27.26124858 -3.10608058 27.16452664 1.3125 23.8125 C3.9375 24.5625 3.9375 24.5625 6.3125 25.8125 C6.9725 26.1425 7.6325 26.4725 8.3125 26.8125 C6.24372338 31.65343728 3.10311511 33.80712623 -1.6875 35.8125 C-7.58724319 36.79276502 -12.71764061 36.31399184 -17.6875 32.8125 C-22.70700319 27.816618 -24.82754439 24.21590568 -25 17 C-24.94928439 11.74459524 -24.36331864 8.78635799 -20.6875 4.8125 C-14.12255109 -1.09595402 -8.53310621 -2.74794946 0 0 Z " fill="#293378" transform="translate(371.6875,583.1875)"/>
<path d="M0 0 C1.2684375 -0.01933594 2.536875 -0.03867187 3.84375 -0.05859375 C8.10741067 0.51991576 10.21846611 1.69162826 13.5 4.4375 C15.27507719 7.32299629 15.7692667 9.58564645 15.87890625 12.94921875 C15.91306641 13.78904297 15.94722656 14.62886719 15.98242188 15.49414062 C16.00884766 16.36232422 16.03527344 17.23050781 16.0625 18.125 C16.12217863 19.85821981 16.1857657 21.59131099 16.25390625 23.32421875 C16.27783447 24.08951904 16.3017627 24.85481934 16.32641602 25.64331055 C16.31026317 27.4596723 16.31026317 27.4596723 17.5 28.4375 C17.54092937 30.77047433 17.54241723 33.10455225 17.5 35.4375 C16.06344146 35.51881463 14.6255517 35.57683559 13.1875 35.625 C11.98673828 35.67720703 11.98673828 35.67720703 10.76171875 35.73046875 C8.02148416 35.37551608 7.20828921 34.54383718 5.5 32.4375 C4.901875 32.911875 4.30375 33.38625 3.6875 33.875 C-0.34864131 36.75795808 -4.67656337 37.21107002 -9.5 36.4375 C-12.91885274 34.51051027 -14.9095503 33.07629916 -16.265625 29.3125 C-16.85754187 26.06791863 -17.08139002 23.59050878 -15.5703125 20.59375 C-13.2834539 17.69611551 -10.9228148 15.72924054 -7.5 14.4375 C-4.265625 14.2421875 -4.265625 14.2421875 -0.75 14.3125 C0.42046875 14.33054687 1.5909375 14.34859375 2.796875 14.3671875 C4.13492188 14.40199219 4.13492188 14.40199219 5.5 14.4375 C4.41215032 11.18766865 4.41215032 11.18766865 2.5 8.4375 C-2.58566831 8.04629475 -5.31038403 8.56462048 -9.5 11.4375 C-10.16 11.4375 -10.82 11.4375 -11.5 11.4375 C-13.1875 9.125 -13.1875 9.125 -14.5 6.4375 C-13.5 3.4375 -13.5 3.4375 -10.90625 1.77734375 C-7.05162775 0.26113339 -4.13297244 0.00420018 0 0 Z " fill="#2B387B" transform="translate(590.5,582.5625)"/>
<path d="M0 0 C3.3 0 6.6 0 10 0 C10.33 8.58 10.66 17.16 11 26 C12.588125 24.02 14.17625 22.04 15.8125 20 C18.70247463 16.63114542 20.78688837 14.30402306 25.1796875 13.203125 C27.88068835 13.24521852 30.35815202 13.4481246 33 14 C32.62488281 14.43570313 32.24976563 14.87140625 31.86328125 15.3203125 C30.79546105 16.56296472 29.73189666 17.80928251 28.671875 19.05859375 C27.62121271 20.27863851 26.5507331 21.48216775 25.453125 22.66015625 C23.87474289 24.33970092 23.87474289 24.33970092 22 27 C22.3565797 30.02148417 23.53808754 32.09368143 25.25 34.56640625 C25.91515625 35.5419043 25.91515625 35.5419043 26.59375 36.53710938 C27.0578125 37.20548828 27.521875 37.87386719 28 38.5625 C28.91982124 39.89496327 29.83661696 41.22952148 30.75 42.56640625 C31.36101563 43.44727905 31.36101563 43.44727905 31.984375 44.34594727 C33 46 33 46 34 49 C30.07917837 49.84326495 26.88117633 50.12202207 23 49 C20.29016573 45.82624211 18.44609601 42.63742511 16.55859375 38.94140625 C15.32174014 35.91881161 15.32174014 35.91881161 13 35 C12.67 35.99 12.34 36.98 12 38 C11.34 38 10.68 38 10 38 C9.67 41.63 9.34 45.26 9 49 C6.03 49 3.06 49 0 49 C0 32.83 0 16.66 0 0 Z " fill="#29377A" transform="translate(538,569)"/>
<path d="M0 0 C4.80373898 2.65718633 8.05016447 6.08799341 9.8125 11.375 C9.8125 14.015 9.8125 16.655 9.8125 19.375 C1.2325 19.375 -7.3475 19.375 -16.1875 19.375 C-14.02083333 25.20833333 -14.02083333 25.20833333 -11.1875 26.375 C-7.06580788 26.69205324 -4.74092767 26.67385094 -1.0625 24.6875 C-0.11375 24.254375 0.835 23.82125 1.8125 23.375 C4.6875 24.6875 4.6875 24.6875 6.8125 26.375 C4.75266042 31.21924586 1.56202102 33.31388711 -3.1875 35.375 C-8.83816089 36.52478665 -13.48951795 35.37864729 -18.4609375 32.5859375 C-21.99378325 30.10814975 -23.84006149 27.41731553 -25.1875 23.375 C-25.81907507 15.71326967 -26.14544684 9.50719741 -21.1875 3.375 C-14.59724659 -1.73580877 -7.7565262 -3.54038412 0 0 Z " fill="#293578" transform="translate(495.1875,583.625)"/>
<path d="M0 0 C1.7634375 -0.01160156 1.7634375 -0.01160156 3.5625 -0.0234375 C7.3818137 0.41925568 9.77153773 1.30090069 13 3.375 C14.85204245 6.30815791 15.27267843 8.66894751 15.37890625 12.10546875 C15.43014648 13.43288086 15.43014648 13.43288086 15.48242188 14.78710938 C15.50884766 15.70298828 15.53527344 16.61886719 15.5625 17.5625 C15.62217146 19.3894625 15.68575705 21.21630284 15.75390625 23.04296875 C15.77783447 23.85016357 15.8017627 24.6573584 15.82641602 25.48901367 C15.7983974 27.38650517 15.7983974 27.38650517 17 28.375 C17.04092937 30.70797433 17.04241723 33.04205225 17 35.375 C9.49230769 35.74423077 9.49230769 35.74423077 7 33.875 C6.67 33.38 6.34 32.885 6 32.375 C5.195625 33.035 4.39125 33.695 3.5625 34.375 C-0.39028613 37.02270947 -4.38137484 37.09718502 -9 36.375 C-12.84681598 34.79183386 -14.31827325 33.24297152 -16 29.375 C-16.51957938 26.58508461 -16.60779274 24.15508904 -16 21.375 C-13.41829375 18.07615312 -10.89150683 15.88836377 -7 14.375 C-3.765625 14.1796875 -3.765625 14.1796875 -0.25 14.25 C0.92046875 14.26804687 2.0909375 14.28609375 3.296875 14.3046875 C4.63492188 14.33949219 4.63492188 14.33949219 6 14.375 C4.91215032 11.12516865 4.91215032 11.12516865 3 8.375 C-2.08566831 7.98379475 -4.81038403 8.50212048 -9 11.375 C-9.66 11.375 -10.32 11.375 -11 11.375 C-12.6875 9.0625 -12.6875 9.0625 -14 6.375 C-13 3.375 -13 3.375 -10.375 1.7109375 C-6.6681545 0.24364449 -3.9728394 -0.0261371 0 0 Z " fill="#283578" transform="translate(729,582.625)"/>
<path d="M0 0 C2.09674086 1.71922547 3.51903719 3.51854313 4.73046875 5.94140625 C4.87004492 7.44958433 4.95587428 8.96296941 5.01171875 10.4765625 C5.04910156 11.36794922 5.08648437 12.25933594 5.125 13.17773438 C5.19545807 15.06574978 5.26576997 16.95377065 5.3359375 18.84179688 C5.37332031 19.73189453 5.41070312 20.62199219 5.44921875 21.5390625 C5.47951172 22.35898682 5.50980469 23.17891113 5.54101562 24.02368164 C5.52653491 25.94886049 5.52653491 25.94886049 6.73046875 26.94140625 C6.77139812 29.27438058 6.77288598 31.6084585 6.73046875 33.94140625 C-0.77722356 34.31063702 -0.77722356 34.31063702 -3.26953125 32.44140625 C-3.59953125 31.94640625 -3.92953125 31.45140625 -4.26953125 30.94140625 C-5.25953125 31.60140625 -6.24953125 32.26140625 -7.26953125 32.94140625 C-11.5762946 35.36885468 -14.35737076 35.64314346 -19.26953125 34.94140625 C-22.28308393 33.17371626 -24.68235555 31.11575765 -26.26953125 27.94140625 C-26.96856038 20.83461013 -26.96856038 20.83461013 -24.01953125 17.06640625 C-19.30781828 13.42553713 -16.54058375 12.6959852 -10.51953125 12.81640625 C-9.3490625 12.83445312 -8.17859375 12.8525 -6.97265625 12.87109375 C-5.63460938 12.90589844 -5.63460938 12.90589844 -4.26953125 12.94140625 C-5.35738093 9.6915749 -5.35738093 9.6915749 -7.26953125 6.94140625 C-12.4232858 6.54496359 -14.97381551 7.1969212 -19.26953125 9.94140625 C-22.26953125 8.94140625 -22.26953125 8.94140625 -24.26953125 5.94140625 C-24.26953125 4.95140625 -24.26953125 3.96140625 -24.26953125 2.94140625 C-17.71700282 -2.17276228 -7.68787807 -3.58591215 0 0 Z " fill="#2A3578" transform="translate(300.26953125,584.05859375)"/>
<path d="M0 0 C6.25681234 3.24175422 12.45127069 6.79341272 17.15625 12.1171875 C17.90625 14.8671875 17.90625 14.8671875 18.15625 17.1171875 C17.393125 16.3128125 16.63 15.5084375 15.84375 14.6796875 C12.95982378 11.92989739 11.40590448 11.29570957 7.53125 10.7421875 C4.7626549 10.2294847 2.73154555 9.57427477 0.15625 8.5546875 C-7.3883676 5.98034163 -16.28499305 5.66836758 -23.71875 8.7421875 C-25.11921144 9.48788775 -26.4958153 10.28026866 -27.84375 11.1171875 C-28.54113281 11.54128906 -29.23851562 11.96539062 -29.95703125 12.40234375 C-36.70556106 16.9649091 -41.68483109 23.81278733 -44.38671875 31.5234375 C-45.51807305 37.94411488 -45.04291631 44.62584102 -44.84375 51.1171875 C-48.14375 50.7871875 -51.44375 50.4571875 -54.84375 50.1171875 C-55.61633027 33.39940891 -52.6952023 20.53879769 -41.15625 7.8671875 C-30.91827018 -2.03479685 -13.31297674 -5.37639445 0 0 Z " fill="#24286C" transform="translate(365.84375,449.8828125)"/>
<path d="M0 0 C6.24326083 1.32921037 12.40478734 2.70765573 18.4375 4.8125 C25.16975266 7.14946354 32.02676767 8.96774454 38.90795898 10.8059082 C44.19116532 12.21984399 49.44100024 13.70830462 54.67431641 15.29711914 C57.98135763 16.29659129 61.30192022 17.24270281 64.625 18.1875 C65.83414063 18.53167969 67.04328125 18.87585938 68.2890625 19.23046875 C69.18367187 19.48441406 70.07828125 19.73835938 71 20 C71 20.66 71 21.32 71 22 C68.69 22.33 66.38 22.66 64 23 C64 22.34 64 21.68 64 21 C63.02659668 21.00523682 62.05319336 21.01047363 61.05029297 21.01586914 C31.05060875 21.15931072 1.05951448 20.86310454 -28.9375 20.5 C-29.92563942 20.48804218 -30.91377884 20.47608437 -31.93186188 20.46376419 C-44.28796707 20.31380908 -56.6440091 20.1590848 -69 20 C-69 19.67 -69 19.34 -69 19 C-41.61 18.67 -14.22 18.34 14 18 C8.555 11.565 8.555 11.565 3 5 C2.01 3.35 1.02 1.7 0 0 Z " fill="#3BB3D9" transform="translate(721,478)"/>
<path d="M0 0 C34.34920851 -0.12772237 68.66216606 0.079887 103 1 C103 1.66 103 2.32 103 3 C101.71484375 3.3671875 100.4296875 3.734375 99.14453125 4.1015625 C98.3055127 4.34132813 97.46649414 4.58109375 96.60205078 4.828125 C94.71380227 5.36753014 92.82545295 5.90658245 90.93701172 6.4453125 C86.20174807 7.79668089 81.46782297 9.15216617 76.73828125 10.5234375 C67.4378426 13.2136397 58.11705574 15.80078111 48.75 18.25 C47.80979004 18.49621094 46.86958008 18.74242187 45.90087891 18.99609375 C40.28975951 20.44982445 34.66537753 21.77442854 29 23 C32.74235362 19.20877236 36.58426241 15.54888212 40.5 11.9375 C41.05558594 11.42123047 41.61117187 10.90496094 42.18359375 10.37304688 C42.73144531 9.86708984 43.27929688 9.36113281 43.84375 8.83984375 C44.33037109 8.38988037 44.81699219 7.93991699 45.31835938 7.47631836 C47.48244242 5.57646206 49.75132704 3.79893837 52 2 C34.84 1.67 17.68 1.34 0 1 C0 0.67 0 0.34 0 0 Z " fill="#237EB3" transform="translate(682,498)"/>
<path d="M0 0 C12.54 0 25.08 0 38 0 C38 2.64 38 5.28 38 8 C33.05 8 28.1 8 23 8 C23 20.54 23 33.08 23 46 C20.03 46 17.06 46 14 46 C14 33.46 14 20.92 14 8 C9.38 8 4.76 8 0 8 C0 5.36 0 2.72 0 0 Z " fill="#223176" transform="translate(212,572)"/>
<path d="M0 0 C3.3 0 6.6 0 10 0 C10.49371094 1.50433594 10.98742187 3.00867188 11.49609375 4.55859375 C12.14307187 6.5182811 12.79021584 8.47791371 13.4375 10.4375 C13.76298828 11.43072266 14.08847656 12.42394531 14.42382812 13.44726562 C14.73642578 14.39150391 15.04902344 15.33574219 15.37109375 16.30859375 C15.65911865 17.18314209 15.94714355 18.05769043 16.24389648 18.95874023 C16.82533284 20.96448895 16.82533284 20.96448895 18 22 C18.31022095 21.10692139 18.31022095 21.10692139 18.62670898 20.19580078 C19.56224634 17.50504717 20.49984735 14.81501718 21.4375 12.125 C21.92573242 10.71927734 21.92573242 10.71927734 22.42382812 9.28515625 C22.73642578 8.38925781 23.04902344 7.49335937 23.37109375 6.5703125 C23.65911865 5.74289551 23.94714355 4.91547852 24.24389648 4.06298828 C25 2 25 2 26 0 C28.97 0 31.94 0 35 0 C34.29574 4.22205622 32.9806657 8.04073059 31.49609375 12.05078125 C31.13198143 13.03899117 31.13198143 13.03899117 30.76051331 14.04716492 C29.98963528 16.13690759 29.21365204 18.22471117 28.4375 20.3125 C27.91177031 21.73490077 27.38637609 23.15742557 26.86132812 24.58007812 C25.57809843 28.05482955 24.29028535 31.52786146 23 35 C19.37 35 15.74 35 12 35 C11.70754395 34.20827393 11.41508789 33.41654785 11.11376953 32.60083008 C10.02217903 29.64669433 8.92998994 26.69278077 7.83740234 23.73901367 C7.36581025 22.463711 6.89445267 21.18832159 6.42333984 19.9128418 C5.74379036 18.07317348 5.0633107 16.23384885 4.3828125 14.39453125 C3.97434082 13.28956299 3.56586914 12.18459473 3.14501953 11.04614258 C2.41803959 9.11212792 1.65699995 7.19031289 0.85107422 5.2878418 C0 3 0 3 0 0 Z " fill="#2C377B" transform="translate(310,583)"/>
<path d="M0 0 C1.79244141 0.01740234 1.79244141 0.01740234 3.62109375 0.03515625 C5.41740234 0.04869141 5.41740234 0.04869141 7.25 0.0625 C8.17683594 0.07410156 9.10367188 0.08570313 10.05859375 0.09765625 C9.06859375 0.75765625 8.07859375 1.41765625 7.05859375 2.09765625 C7.38859375 2.75765625 7.71859375 3.41765625 8.05859375 4.09765625 C6.7834491 4.11827118 5.50830444 4.13888611 4.19451904 4.16012573 C-8.09208562 4.35952723 -20.37857309 4.56519958 -32.66498184 4.77633476 C-38.97468983 4.88458027 -45.28441526 4.99094776 -51.59423828 5.09228516 C-80.42332768 5.55673604 -109.22697401 6.19978991 -138.03424072 7.443573 C-168.92402099 8.76583848 -168.92402099 8.76583848 -175.94140625 7.09765625 C-169.35860194 0.51485194 -150.81369272 2.66578642 -141.79296875 2.5078125 C-140.04154392 2.47114132 -138.29013007 2.43394267 -136.53872681 2.39625549 C-131.00652038 2.28139229 -125.47408623 2.18647108 -119.94140625 2.09765625 C-119.04131332 2.08316185 -118.1412204 2.06866745 -117.21385193 2.05373383 C-104.50203642 1.85250149 -91.78980107 1.70191868 -79.07714844 1.56542969 C-75.37435652 1.52482603 -71.671607 1.48089305 -67.968853 1.43698692 C-63.40503728 1.38319598 -58.84119729 1.33172119 -54.27734375 1.28125 C-52.9607288 1.26663286 -52.9607288 1.26663286 -51.61751556 1.25172043 C-42.62917199 1.15428231 -33.64223913 1.08175409 -24.65332031 1.10595703 C-23.57864345 1.10851234 -23.57864345 1.10851234 -22.48225594 1.11111927 C-19.16741283 1.12031198 -15.85294865 1.13681185 -12.53817749 1.16319275 C-11.40747833 1.16871658 -10.27677917 1.17424042 -9.11181641 1.17993164 C-8.1299234 1.18795303 -7.1480304 1.19597443 -6.13638306 1.20423889 C-3.22727667 1.06297988 -3.17347846 0.10536117 0 0 Z " fill="#CEDEEA" transform="translate(701.94140625,492.90234375)"/>
<path d="M0 0 C3.3 0 6.6 0 10 0 C10 16.17 10 32.34 10 49 C6.7 49 3.4 49 0 49 C0 32.83 0 16.66 0 0 Z " fill="#2F3D7E" transform="translate(389,569)"/>
<path d="M0 0 C3.3 0 6.6 0 10 0 C10 15.18 10 30.36 10 46 C6.7 46 3.4 46 0 46 C0 30.82 0 15.64 0 0 Z " fill="#2E3C79" transform="translate(676,572)"/>
<path d="M0 0 C3.3 0 6.6 0 10 0 C10.33 0.99 10.66 1.98 11 3 C11.804375 2.2575 11.804375 2.2575 12.625 1.5 C15.59358445 -0.37489544 17.55312427 -0.23501425 21 0 C21 2.64 21 5.28 21 8 C18.98177083 8.42317708 16.96354167 8.84635417 14.9453125 9.26953125 C12.62953451 9.92308838 12.62953451 9.92308838 11 13 C10.63303819 15.51502177 10.63303819 15.51502177 10.5859375 18.32421875 C10.52792969 19.86625977 10.52792969 19.86625977 10.46875 21.43945312 C10.4378125 22.51130859 10.406875 23.58316406 10.375 24.6875 C10.31699219 26.31268555 10.31699219 26.31268555 10.2578125 27.97070312 C10.16349884 30.64685334 10.08065874 33.32340342 10 36 C6.7 36 3.4 36 0 36 C0 24.12 0 12.24 0 0 Z " fill="#32407F" transform="translate(511,583)"/>
<path d="M0 0 C2.97 0 5.94 0 9 0 C9 16.17 9 32.34 9 49 C6.03 49 3.06 49 0 49 C0 32.83 0 16.66 0 0 Z " fill="#253275" transform="translate(697,569)"/>
<path d="M0 0 C0 3.3 0 6.6 0 10 C-1.98567708 10.13020833 -3.97135417 10.26041667 -5.95703125 10.390625 C-8.78553618 11.23430907 -9.4646333 12.51437157 -11 15 C-11.49758752 17.40554294 -11.49758752 17.40554294 -11.51171875 19.984375 C-11.54716797 20.91894531 -11.58261719 21.85351562 -11.61914062 22.81640625 C-11.65297852 24.26853516 -11.65297852 24.26853516 -11.6875 25.75 C-11.72166016 26.73355469 -11.75582031 27.71710937 -11.79101562 28.73046875 C-11.87334309 31.15324858 -11.93835225 33.5766058 -12 36 C-14.97 36 -17.94 36 -21 36 C-21 24.45 -21 12.9 -21 1 C-18.03 1 -15.06 1 -12 1 C-11.67 2.32 -11.34 3.64 -11 5 C-10.21625 4.360625 -9.4325 3.72125 -8.625 3.0625 C-5.11629739 0.30566224 -4.59790411 0 0 0 Z " fill="#222F73" transform="translate(271,582)"/>
<path d="M0 0 C2.64 0 5.28 0 8 0 C8.33 6.27 8.66 12.54 9 19 C9.66 19.33 10.32 19.66 11 20 C10.67 20.66 10.34 21.32 10 22 C9.84621148 23.95774069 9.75028537 25.92017352 9.68359375 27.8828125 C9.64169922 29.04941406 9.59980469 30.21601562 9.55664062 31.41796875 C9.49766602 33.25294922 9.49766602 33.25294922 9.4375 35.125 C9.39431641 36.35605469 9.35113281 37.58710937 9.30664062 38.85546875 C9.20031296 41.90352853 9.09828219 44.9516719 9 48 C6.03 48 3.06 48 0 48 C0 32.16 0 16.32 0 0 Z " fill="#222F74" transform="translate(616,570)"/>
<path d="M0 0 C2.97 0 5.94 0 9 0 C9 11.55 9 23.1 9 35 C6.03 35 3.06 35 0 35 C0 23.45 0 11.9 0 0 Z " fill="#283779" transform="translate(797,583)"/>
<path d="M0 0 C0.495 0.99 0.495 0.99 1 2 C2.65051288 3.11634152 2.65051288 3.11634152 4.5625 4.125 C6.2640625 5.053125 6.2640625 5.053125 8 6 C8 6.66 8 7.32 8 8 C4.86758465 7.5105601 2.47570488 6.76168404 -0.4375 5.4375 C-8.47771951 2.34627924 -18.17956702 3.01546448 -26.13671875 6.0703125 C-28.24879447 7.05308156 -28.24879447 7.05308156 -30.8125 9.125 C-35.60858139 11.94622435 -40.52421871 11.82279025 -46 12 C-40.11327365 4.04496439 -32.16185497 -1.04785726 -22.3125 -2.75390625 C-14.53652436 -3.58141717 -7.13460925 -3.61708097 0 0 Z " fill="#288CB7" transform="translate(643,453)"/>
<path d="M0 0 C6.38793378 0.53285644 12.00622117 1.68072786 18.0625 3.75 C18.81337891 3.98976563 19.56425781 4.22953125 20.33789062 4.4765625 C25.67387634 6.26598554 30.48094809 8.60975055 35 12 C35 12.33 35 12.66 35 13 C32.33305052 13.05455124 29.66724502 13.09393392 27 13.125 C25.88431641 13.15013672 25.88431641 13.15013672 24.74609375 13.17578125 C17.17388388 13.24162655 10.8050774 12.4821205 5.0625 7.0625 C4.31097656 6.37285156 3.55945313 5.68320312 2.78515625 4.97265625 C1 3 1 3 0 0 Z " fill="#F3FBFB" transform="translate(666,456)"/>
<path d="M0 0 C0.33 0.99 0.66 1.98 1 3 C-0.328125 5.015625 -0.328125 5.015625 -2.25 7.25 C-6.77959365 12.80618147 -8.83345242 18.16704224 -11 25 C-13.97 25 -16.94 25 -20 25 C-16.76894906 8.50463466 -16.76894906 8.50463466 -11 3 C-7.27387565 1.89653342 -3.86356753 1.76626104 0 2 C0 1.34 0 0.68 0 0 Z " fill="#236DA4" transform="translate(606,462)"/>
<path d="M0 0 C2.41734542 -0.08117951 4.83194949 -0.14056926 7.25 -0.1875 C7.93191406 -0.21263672 8.61382812 -0.23777344 9.31640625 -0.26367188 C12.46586544 -0.30953779 14.66012938 -0.18317351 17.45703125 1.32421875 C19 3 19 3 19.4375 6 C19 9 19 9 17.984375 10.67578125 C14.83095117 12.78013298 11.46427304 12.31188354 7.8125 12.1875 C6.68811523 12.16719727 6.68811523 12.16719727 5.54101562 12.14648438 C3.69370233 12.11118539 1.84675934 12.05737917 0 12 C0 8.04 0 4.08 0 0 Z " fill="#EDF1F5" transform="translate(436,598)"/>
<path d="M0 0 C27.41393469 -0.23146142 54.65240018 -0.03517022 82 2 C82 2.33 82 2.66 82 3 C50.32 3.33 18.64 3.66 -14 4 C-14 3.67 -14 3.34 -14 3 C-6.08 2.505 -6.08 2.505 2 2 C1.34 1.34 0.68 0.68 0 0 Z " fill="#2F6AA3" transform="translate(578,492)"/>
<path d="M0 0 C2.27024968 -0.08097324 4.54132075 -0.13917704 6.8125 -0.1875 C8.07707031 -0.22230469 9.34164063 -0.25710938 10.64453125 -0.29296875 C14 0 14 0 15.921875 1.35546875 C17.48683812 3.74260453 17.48810985 5.21080088 17 8 C14.58539523 10.47335428 13.24404363 10.9778946 9.765625 11.29296875 C8.60546875 11.25816406 7.4453125 11.22335937 6.25 11.1875 C5.07953125 11.16042969 3.9090625 11.13335938 2.703125 11.10546875 C1.81109375 11.07066406 0.9190625 11.03585937 0 11 C0 7.37 0 3.74 0 0 Z " fill="#F2F4F7" transform="translate(436,580)"/>
<path d="M0 0 C1.81564453 0.00580078 1.81564453 0.00580078 3.66796875 0.01171875 C6.8125 0.3125 6.8125 0.3125 9.8125 2.3125 C8.4375 4.3125 8.4375 4.3125 6.8125 6.3125 C6.1525 6.3125 5.4925 6.3125 4.8125 6.3125 C4.4825 7.3025 4.1525 8.2925 3.8125 9.3125 C3.4825 8.9825 3.1525 8.6525 2.8125 8.3125 C-2.27316831 7.92129475 -4.99788403 8.43962048 -9.1875 11.3125 C-9.8475 11.3125 -10.5075 11.3125 -11.1875 11.3125 C-12.875 9 -12.875 9 -14.1875 6.3125 C-13.1875 3.3125 -13.1875 3.3125 -10.57421875 1.64453125 C-6.80078809 0.16040223 -4.04020693 -0.05629442 0 0 Z " fill="#29357E" transform="translate(729.1875,582.6875)"/>
<path d="M0 0 C8.25 0 16.5 0 25 0 C25 0.33 25 0.66 25 1 C23.02 1 21.04 1 19 1 C20.32 2.65 21.64 4.3 23 6 C20 6 20 6 18.0625 5.3125 C17.381875 5.209375 16.70125 5.10625 16 5 C15.13375 5.7115625 15.13375 5.7115625 14.25 6.4375 C11.3605745 8.44404549 9.36166461 8.4908488 5.90625 8.35546875 C4 8 4 8 1.5 6.25 C0 4 0 4 0 0 Z " fill="#DCE0EB" transform="translate(357,603)"/>
<path d="M0 0 C1.52603569 0.01006534 3.05207792 0.01918482 4.578125 0.02734375 C8.26055614 0.04904024 11.94273376 0.08336714 15.625 0.125 C15.625 0.455 15.625 0.785 15.625 1.125 C5.23 1.62 5.23 1.62 -5.375 2.125 C-1.415 2.455 2.545 2.785 6.625 3.125 C6.625 3.455 6.625 3.785 6.625 4.125 C-25.27022342 6.06644838 -25.27022342 6.06644838 -33.375 4.125 C-26.74068087 -2.50931913 -8.99982769 -0.1049254 0 0 Z " fill="#D9E7F0" transform="translate(559.375,495.875)"/>
<path d="M0 0 C8.25 0 16.5 0 25 0 C25 0.33 25 0.66 25 1 C23.02 1.33 21.04 1.66 19 2 C19.66 3.32 20.32 4.64 21 6 C20.443125 5.773125 19.88625 5.54625 19.3125 5.3125 C16.88057877 4.73390225 16.88057877 4.73390225 14.6875 6.4375 C11.14689902 8.49598894 9.03712323 8.57673189 5 8 C2.0625 5.6875 2.0625 5.6875 0 3 C0 2.01 0 1.02 0 0 Z " fill="#DADEEA" transform="translate(479,603)"/>
<path d="M0 0 C0 3.3 0 6.6 0 10 C-9.49565217 11.35652174 -9.49565217 11.35652174 -11.8125 9.71875 C-13.56497936 7.18226672 -13.19982662 4.99739928 -13 2 C-15.64 2 -18.28 2 -21 2 C-21 1.67 -21 1.34 -21 1 C-18.03 1 -15.06 1 -12 1 C-11.67 2.32 -11.34 3.64 -11 5 C-10.21625 4.360625 -9.4325 3.72125 -8.625 3.0625 C-5.11629739 0.30566224 -4.59790411 0 0 0 Z " fill="#454D88" transform="translate(271,582)"/>
<path d="M0 0 C2.9375 2.3125 2.9375 2.3125 5 5 C5 5.99 5 6.98 5 8 C-0.61 8 -6.22 8 -12 8 C-11 3 -11 3 -9.375 1.1875 C-5.98279278 -0.50860361 -3.74493155 -0.52560443 0 0 Z " fill="#E7E9F0" transform="translate(491,590)"/>
<path d="M0 0 C2.9375 1.75 2.9375 1.75 5 4 C5 5.32 5 6.64 5 8 C-0.61 8 -6.22 8 -12 8 C-9.16835037 0.92087592 -7.89053152 -0.95230553 0 0 Z " fill="#EAECF2" transform="translate(368,590)"/>
<path d="M0 0 C0.99773438 0.02320313 1.99546875 0.04640625 3.0234375 0.0703125 C4.52777344 0.09738281 4.52777344 0.09738281 6.0625 0.125 C6.83335937 0.14820313 7.60421875 0.17140625 8.3984375 0.1953125 C8.1080037 3.46269275 7.91275515 5.5820876 5.7734375 8.1328125 C2.38179161 9.65012777 -0.04533766 9.00049548 -3.6015625 8.1953125 C-4.6015625 7.1953125 -4.6015625 7.1953125 -4.7890625 4.7578125 C-4.52437488 1.14041503 -3.60808229 0.27087705 0 0 Z " fill="#ECEFF4" transform="translate(726.6015625,602.8046875)"/>
<path d="M0 0 C0.99773438 0.02320313 1.99546875 0.04640625 3.0234375 0.0703125 C4.52777344 0.09738281 4.52777344 0.09738281 6.0625 0.125 C6.83335937 0.14820313 7.60421875 0.17140625 8.3984375 0.1953125 C8.65625 4.8984375 8.65625 4.8984375 6.3359375 7.5703125 C2.57296366 9.6519576 0.50336106 9.16117687 -3.6015625 8.1953125 C-4.2265625 5.3203125 -4.2265625 5.3203125 -4.6015625 2.1953125 C-2.6015625 0.1953125 -2.6015625 0.1953125 0 0 Z " fill="#ECF0F4" transform="translate(587.6015625,602.8046875)"/>
<path d="M0 0 C1.79244141 0.01740234 1.79244141 0.01740234 3.62109375 0.03515625 C5.41740234 0.04869141 5.41740234 0.04869141 7.25 0.0625 C8.17683594 0.07410156 9.10367188 0.08570313 10.05859375 0.09765625 C9.06859375 0.75765625 8.07859375 1.41765625 7.05859375 2.09765625 C7.55359375 3.08765625 7.55359375 3.08765625 8.05859375 4.09765625 C-6.13140625 4.09765625 -20.32140625 4.09765625 -34.94140625 4.09765625 C-34.94140625 3.76765625 -34.94140625 3.43765625 -34.94140625 3.09765625 C-33.54063843 3.01463257 -33.54063843 3.01463257 -32.11157227 2.92993164 C-28.65803945 2.723034 -25.20481265 2.51199133 -21.75170898 2.2980957 C-20.255066 2.20625218 -18.75831958 2.11607856 -17.26147461 2.02758789 C-15.11412864 1.90035356 -12.96722214 1.76718426 -10.8203125 1.6328125 C-9.52681885 1.55426025 -8.2333252 1.47570801 -6.90063477 1.39477539 C-3.55841368 1.05920217 -3.35303651 0.11132259 0 0 Z " fill="#DBECF1" transform="translate(701.94140625,492.90234375)"/>
<path d="M0 0 C0.99773437 0.02320313 1.99546875 0.04640625 3.0234375 0.0703125 C4.52777344 0.09738281 4.52777344 0.09738281 6.0625 0.125 C6.83335937 0.14820313 7.60421875 0.17140625 8.3984375 0.1953125 C8.7600948 4.65575257 8.7600948 4.65575257 7.19140625 6.99609375 C4.88087028 8.54148491 3.46573119 8.50258614 0.7109375 8.3828125 C-0.50142578 8.34220703 -0.50142578 8.34220703 -1.73828125 8.30078125 C-2.35316406 8.26597656 -2.96804688 8.23117187 -3.6015625 8.1953125 C-4.2265625 5.3203125 -4.2265625 5.3203125 -4.6015625 2.1953125 C-2.6015625 0.1953125 -2.6015625 0.1953125 0 0 Z " fill="#ECEFF5" transform="translate(287.6015625,602.8046875)"/>
<path d="M0 0 C3.3 0 6.6 0 10 0 C10 2.97 10 5.94 10 9 C6.7 9 3.4 9 0 9 C0 6.03 0 3.06 0 0 Z " fill="#303D7E" transform="translate(796,569)"/>
<path d="M0 0 C1.90558685 0.03541649 1.90558685 0.03541649 3.84967041 0.07154846 C7.18363239 0.13459268 10.51739924 0.20286331 13.85119629 0.27380371 C17.27050265 0.34523113 20.6899417 0.40959849 24.109375 0.47460938 C30.78659721 0.60296195 37.46365183 0.7382216 44.140625 0.87890625 C42.140625 2.87890625 42.140625 2.87890625 39.318573 3.11941528 C37.51321579 3.11275345 37.51321579 3.11275345 35.67138672 3.10595703 C35.00785187 3.10624908 34.34431702 3.10654114 33.66067505 3.10684204 C31.46375528 3.10544681 29.26717314 3.08987692 27.0703125 3.07421875 C25.54859604 3.0704893 24.02687719 3.06764201 22.50515747 3.06564331 C18.49706408 3.05800148 14.4891153 3.03834838 10.4810791 3.01623535 C6.39235388 2.99578869 2.30360534 2.98664413 -1.78515625 2.9765625 C-9.80996224 2.95510292 -17.83465064 2.92096046 -25.859375 2.87890625 C-25.859375 2.21890625 -25.859375 1.55890625 -25.859375 0.87890625 C-17.19913438 -0.02451571 -8.69993915 -0.1949075 0 0 Z " fill="#5096C0" transform="translate(690.859375,498.12109375)"/>
<path d="M0 0 C9.57 0 19.14 0 29 0 C29 0.33 29 0.66 29 1 C27.56359829 1.19573608 26.12580496 1.38127816 24.6875 1.5625 C23.88699219 1.66691406 23.08648438 1.77132813 22.26171875 1.87890625 C20 2 20 2 17 1 C17 1.66 17 2.32 17 3 C7.31337984 4.04518445 -2.27345227 4.10371911 -12 4 C-12 3.67 -12 3.34 -12 3 C-5.565 2.505 -5.565 2.505 1 2 C0.67 1.34 0.34 0.68 0 0 Z " fill="#1D72AB" transform="translate(648,498)"/>
<path d="M0 0 C0 2.64 0 5.28 0 8 C-3.3 8 -6.6 8 -10 8 C-10 3 -10 3 -8.375 1.1875 C-5.42797793 -0.28601103 -3.25295114 -0.22179212 0 0 Z " fill="#243075" transform="translate(532,583)"/>
<path d="M0 0 C3.84242345 1.56543178 6.19563993 3.98531292 9 7 C10.11375 8.175625 10.11375 8.175625 11.25 9.375 C13.38676973 12.5801546 13.56361109 15.21796277 14 19 C14.66 19.33 15.32 19.66 16 20 C15.01 20 14.02 20 13 20 C11.7109375 18.09375 11.7109375 18.09375 10.375 15.5 C7.16597528 9.81127437 3.07219572 6.03521349 -2 2 C-1.34 1.34 -0.68 0.68 0 0 Z " fill="#273984" transform="translate(376,460)"/>
<path d="M0 0 C0.33 0 0.66 0 1 0 C1.33 5.61 1.66 11.22 2 17 C4.31 15.68 6.62 14.36 9 13 C12.4375 12.75 12.4375 12.75 15 13 C15 13.33 15 13.66 15 14 C13.9275 14.165 12.855 14.33 11.75 14.5 C9.15625719 15.20499298 8.21855238 15.69138137 6.64453125 17.9140625 C5.6642 19.91719422 4.78181017 21.91193558 4 24 C2.015625 22.640625 2.015625 22.640625 0 20 C-0.51270905 16.57486085 -0.37576221 13.20362379 -0.25 9.75 C-0.23195313 8.81414063 -0.21390625 7.87828125 -0.1953125 6.9140625 C-0.14825673 4.60832985 -0.08253713 2.30469055 0 0 Z " fill="#4F5C93" transform="translate(763,569)"/>
<path d="M0 0 C0.33 0 0.66 0 1 0 C1.33 11.88 1.66 23.76 2 36 C3.32 36.66 4.64 37.32 6 38 C6 38.33 6 38.66 6 39 C4.02 39 2.04 39 0 39 C0 26.13 0 13.26 0 0 Z " fill="#293B7D" transform="translate(226,579)"/>
<path d="M0 0 C3.31395208 0.27649607 6.62571605 0.57372434 9.9375 0.875 C11.35579102 0.99294922 11.35579102 0.99294922 12.80273438 1.11328125 C14.15141602 1.23896484 14.15141602 1.23896484 15.52734375 1.3671875 C16.35999756 1.44050293 17.19265137 1.51381836 18.05053711 1.58935547 C18.69385986 1.72486816 19.33718262 1.86038086 20 2 C20.33 2.66 20.66 3.32 21 4 C13.41 4 5.82 4 -2 4 C-1.34 2.68 -0.68 1.36 0 0 Z " fill="#2974AE" transform="translate(539,483)"/>
<path d="M0 0 C0.99 0.33 1.98 0.66 3 1 C3.33 1.99 3.66 2.98 4 4 C3.38125 4.12375 2.7625 4.2475 2.125 4.375 C-0.19120832 4.87197356 -0.19120832 4.87197356 -2 7 C-2.45811675 8.97235333 -2.45811675 8.97235333 -2.625 11.125 C-2.74875 12.40375 -2.8725 13.6825 -3 15 C-6.3 15 -9.6 15 -13 15 C-13 14.67 -13 14.34 -13 14 C-10.03 14 -7.06 14 -4 14 C-4.12375 11.9271875 -4.12375 11.9271875 -4.25 9.8125 C-4.27323063 6.13044558 -4.10171324 5.1557484 -2 1.9375 C-1.34 1.298125 -0.68 0.65875 0 0 Z " fill="#C5C9D6" transform="translate(551,604)"/>
<path d="M0 0 C6.93 0.495 6.93 0.495 14 1 C14 1.33 14 1.66 14 2 C4.76544501 4.59866874 -4.504975 4.18617696 -14 4 C-14 3.67 -14 3.34 -14 3 C-6.08 2.505 -6.08 2.505 2 2 C1.34 1.34 0.68 0.68 0 0 Z " fill="#3365A1" transform="translate(578,492)"/>
<path d="M0 0 C3.99887575 0.57126796 6.59653716 1.87283572 10 4 C11.65369357 4.69822617 13.31727014 5.37498605 15 6 C14.67 6.66 14.34 7.32 14 8 C9.24518354 7.42365861 6.02951788 5.44931479 2 3 C2 2.34 2 1.68 2 1 C1.34 0.67 0.68 0.34 0 0 Z " fill="#2F9FCA" transform="translate(641,452)"/>
<path d="M0 0 C0.33 0.99 0.66 1.98 1 3 C0.01 3.33 -0.98 3.66 -2 4 C-0.93354885 5.29633621 -0.93354885 5.29633621 1.5625 5.0625 C2.366875 5.041875 3.17125 5.02125 4 5 C1.11371599 6.57554035 -1.53342384 7.46276373 -4.75 8.125 C-5.54921875 8.29257812 -6.3484375 8.46015625 -7.171875 8.6328125 C-7.77515625 8.75398437 -8.3784375 8.87515625 -9 9 C-6 6 -3 3 0 0 Z " fill="#2E94C0" transform="translate(720,512)"/>
<path d="M0 0 C2.97 0.33 5.94 0.66 9 1 C8.01 1.495 8.01 1.495 7 2 C7 3.65 7 5.3 7 7 C4.13302508 5.71480435 2.02392288 4.42870746 0 2 C0 1.34 0 0.68 0 0 Z " fill="#4A4A97" transform="translate(250,423)"/>
<path d="M0 0 C5.28 1.32 10.56 2.64 16 4 C16 4.66 16 5.32 16 6 C12.875 5.47916667 9.75 4.95833333 6.625 4.4375 C5.325625 4.2209375 5.325625 4.2209375 4 4 C4 3.34 4 2.68 4 2 C2.68 2 1.36 2 0 2 C0 1.34 0 0.68 0 0 Z " fill="#57C4DF" transform="translate(776,494)"/>
<path d="M0 0 C0.33 0.66 0.66 1.32 1 2 C0.34 2 -0.32 2 -1 2 C-1 2.66 -1 3.32 -1 4 C0.32 3.67 1.64 3.34 3 3 C3.66 4.32 4.32 5.64 5 7 C3.35 7.66 1.7 8.32 0 9 C-1.5625 6.6875 -1.5625 6.6875 -3 4 C-2.67 3.01 -2.34 2.02 -2 1 C-1.34 0.67 -0.68 0.34 0 0 Z " fill="#363F84" transform="translate(718,585)"/>
<path d="M0 0 C1.41623216 -0.05447047 2.83308191 -0.09300508 4.25 -0.125 C5.03890625 -0.14820313 5.8278125 -0.17140625 6.640625 -0.1953125 C9.20731941 0.0171622 10.7916067 0.71345895 13 2 C12 3 12 3 9.49609375 3.09765625 C7.98208984 3.08025391 7.98208984 3.08025391 6.4375 3.0625 C5.42558594 3.05347656 4.41367187 3.04445313 3.37109375 3.03515625 C2.58863281 3.02355469 1.80617188 3.01195312 1 3 C0.67 2.01 0.34 1.02 0 0 Z " fill="#EAF8FB" transform="translate(686,492)"/>
<path d="M0 0 C0.66 0 1.32 0 2 0 C2 2.64 2 5.28 2 8 C0.35 8 -1.3 8 -3 8 C-3.33 7.34 -3.66 6.68 -4 6 C-3.67 5.34 -3.34 4.68 -3 4 C-1.68 4 -0.36 4 1 4 C1 3.34 1 2.68 1 2 C0.34 1.67 -0.32 1.34 -1 1 C-0.67 0.67 -0.34 0.34 0 0 Z " fill="#202B72" transform="translate(268,583)"/>
<path d="M0 0 C0.99 0.33 1.98 0.66 3 1 C1.68 2.32 0.36 3.64 -1 5 C-0.01 5.99 0.98 6.98 2 8 C-0.64 8.33 -3.28 8.66 -6 9 C-6 8.34 -6 7.68 -6 7 C-5.34 6.67 -4.68 6.34 -4 6 C-2.96986723 4.35178756 -1.96885372 2.68496298 -1 1 C-0.67 0.67 -0.34 0.34 0 0 Z " fill="#167BB1" transform="translate(724,509)"/>
<path d="M0 0 C0.33 0.66 0.66 1.32 1 2 C0.34 2 -0.32 2 -1 2 C-1 2.66 -1 3.32 -1 4 C1.475 4.99 1.475 4.99 4 6 C3.01 7.485 3.01 7.485 2 9 C1.34 9 0.68 9 0 9 C-1.6875 6.6875 -1.6875 6.6875 -3 4 C-2.67 3.01 -2.34 2.02 -2 1 C-1.34 0.67 -0.68 0.34 0 0 Z " fill="#364284" transform="translate(579,585)"/>
<path d="M0 0 C3 1 3 1 4 3 C4.99 3 5.98 3 7 3 C7.33 3.66 7.66 4.32 8 5 C6.35 5.66 4.7 6.32 3 7 C0 3.375 0 3.375 0 0 Z " fill="#3F4684" transform="translate(276,587)"/>
<path d="M0 0 C0 0.66 0 1.32 0 2 C-0.99 2.495 -0.99 2.495 -2 3 C-2 5.97 -2 8.94 -2 12 C-4.39763185 9.60236815 -4.34280586 8.66726502 -4.625 5.375 C-4.69976562 4.55773437 -4.77453125 3.74046875 -4.8515625 2.8984375 C-4.90054687 2.27195312 -4.94953125 1.64546875 -5 1 C-3 0 -3 0 0 0 Z " fill="#48BEDC" transform="translate(342,526)"/>
<path d="M0 0 C0.66 0.66 1.32 1.32 2 2 C1 3 1 3 -2.6875 3.125 C-6.20832979 3.08693698 -9.54093525 2.69181295 -13 2 C-13 1.67 -13 1.34 -13 1 C-10.87631556 0.77865824 -8.75095976 0.57329993 -6.625 0.375 C-5.44164062 0.25898438 -4.25828125 0.14296875 -3.0390625 0.0234375 C-2.03617188 0.01570313 -1.03328125 0.00796875 0 0 Z " fill="#5AC4E3" transform="translate(701,468)"/>
<path d="M0 0 C0 0.99 0 1.98 0 3 C-2.64 3 -5.28 3 -8 3 C-7.34 2.67 -6.68 2.34 -6 2 C-6 1.34 -6 0.68 -6 0 C-3 -1 -3 -1 0 0 Z " fill="#223981" transform="translate(685,615)"/>
<path d="M0 0 C1.11375 0.556875 1.11375 0.556875 2.25 1.125 C2.25 2.115 2.25 3.105 2.25 4.125 C1.321875 3.75375 0.39375 3.3825 -0.5625 3 C-1.614375 2.71125 -2.66625 2.4225 -3.75 2.125 C-4.74 2.785 -5.73 3.445 -6.75 4.125 C-6.75 3.135 -6.75 2.145 -6.75 1.125 C-4.02098495 -0.69434337 -3.21400584 -1.02263822 0 0 Z " fill="#E4E9EE" transform="translate(376.75,605.875)"/>
<path d="M0 0 C1.32 1.32 2.64 2.64 4 4 C3.67 4.66 3.34 5.32 3 6 C2.01 6.33 1.02 6.66 0 7 C-1.5 5.625 -1.5 5.625 -3 4 C-3 3.34 -3 2.68 -3 2 C-2.01 1.34 -1.02 0.68 0 0 Z " fill="#384A89" transform="translate(594,609)"/>
<path d="M0 0 C1.65 0.99 3.3 1.98 5 3 C4.67 3.66 4.34 4.32 4 5 C3.01 4.67 2.02 4.34 1 4 C-1.16715557 4.87483915 -1.16715557 4.87483915 -3 6 C-3.33 5.34 -3.66 4.68 -4 4 C-2.68 2.68 -1.36 1.36 0 0 Z " fill="#DFE6EE" transform="translate(495,604)"/>
<path d="M0 0 C0.99 0 1.98 0 3 0 C2.67 1.65 2.34 3.3 2 5 C1.01 5.33 0.02 5.66 -1 6 C-0.67 4.02 -0.34 2.04 0 0 Z " fill="#243172" transform="translate(337,596)"/>
<path d="M0 0 C1 2 1 2 0.375 4.0625 C-1 6 -1 6 -3.625 6.75 C-4.800625 6.87375 -4.800625 6.87375 -6 7 C-4.77065985 3.31197956 -3.06140622 2.27643027 0 0 Z " fill="#3F408E" transform="translate(264,526)"/>
<path d="M0 0 C0.66 0.33 1.32 0.66 2 1 C0.25 3.0625 0.25 3.0625 -2 5 C-4.25 4.75 -4.25 4.75 -6 4 C-4.02 2.68 -2.04 1.36 0 0 Z " fill="#3F4B84" transform="translate(720,598)"/>
<path d="M0 0 C0.33 0.99 0.66 1.98 1 3 C-0.32 3.99 -1.64 4.98 -3 6 C-3 5.34 -3 4.68 -3 4 C-4.32 3.67 -5.64 3.34 -7 3 C-3.535 2.505 -3.535 2.505 0 2 C0 1.34 0 0.68 0 0 Z " fill="#2177B1" transform="translate(606,462)"/>
</svg>
